<svg width="2928" height="2957" viewBox="0 0 2928 2957" fill="none" xmlns="http://www.w3.org/2000/svg">
<g filter="url(#filter0_d_152_2421)">
<rect x="493" y="232" width="2000" height="2000" rx="405.797" fill="url(#paint0_linear_152_2421)" shape-rendering="crispEdges"/>
<path fill-rule="evenodd" clip-rule="evenodd" d="M1304.59 866.783C1304.59 859.864 1306.99 853.229 1311.26 848.336C1315.54 843.444 1321.33 840.696 1327.37 840.696H1600.66C1606.7 840.696 1612.49 843.444 1616.76 848.336C1621.03 853.229 1623.43 859.864 1623.43 866.783V1075.48C1623.43 1082.4 1621.03 1089.03 1616.76 1093.92C1612.49 1098.82 1606.7 1101.57 1600.66 1101.57H1327.37C1321.33 1101.57 1315.54 1098.82 1311.26 1093.92C1306.99 1089.03 1304.59 1082.4 1304.59 1075.48V866.783ZM1362.58 895.165H1508.52C1515.83 895.165 1521.77 901.948 1521.77 910.348V1031.91C1521.77 1040.31 1515.85 1047.1 1508.52 1047.1H1362.58C1360.83 1047.1 1359.11 1046.71 1357.5 1045.95C1355.89 1045.19 1354.42 1044.08 1353.19 1042.66C1351.96 1041.25 1350.98 1039.58 1350.32 1037.73C1349.66 1035.89 1349.32 1033.91 1349.32 1031.91V910.348C1349.32 901.948 1355.24 895.165 1362.58 895.165ZM1548.1 914.678C1548.1 905.678 1554.47 898.374 1562.33 898.374H1586.15C1589.93 898.374 1593.55 900.092 1596.22 903.149C1598.89 906.207 1600.39 910.354 1600.39 914.678C1600.39 919.003 1598.89 923.15 1596.22 926.207C1593.55 929.265 1589.93 930.983 1586.15 930.983H1562.33C1558.56 930.983 1554.94 929.265 1552.27 926.207C1549.6 923.15 1548.1 919.003 1548.1 914.678ZM1562.33 954.826C1558.56 954.826 1554.94 956.544 1552.27 959.602C1549.6 962.659 1548.1 966.806 1548.1 971.131C1548.1 975.455 1549.6 979.602 1552.27 982.659C1554.94 985.717 1558.56 987.435 1562.33 987.435H1586.15C1589.93 987.435 1593.55 985.717 1596.22 982.659C1598.89 979.602 1600.39 975.455 1600.39 971.131C1600.39 966.806 1598.89 962.659 1596.22 959.602C1593.55 956.544 1589.93 954.826 1586.15 954.826H1562.33Z" fill="white"/>
<path d="M1333.58 1304.46C1343.85 1304.46 1352.46 1301.12 1359.41 1294.45C1366.37 1287.77 1369.84 1279.51 1369.81 1269.68C1369.79 1259.85 1366.31 1251.59 1359.38 1244.92C1352.44 1238.24 1343.85 1234.9 1333.58 1234.9C1323.31 1234.9 1314.72 1238.24 1307.78 1244.92C1300.85 1251.59 1297.37 1259.85 1297.35 1269.68C1297.32 1279.51 1300.8 1287.78 1307.78 1294.48C1314.76 1301.18 1323.36 1304.51 1333.58 1304.46ZM1442.28 1304.46C1452.54 1304.46 1461.15 1301.12 1468.11 1294.45C1475.07 1287.77 1478.53 1279.51 1478.51 1269.68C1478.48 1259.85 1475 1251.59 1468.07 1244.92C1461.14 1238.24 1452.54 1234.9 1442.28 1234.9C1432.01 1234.9 1423.41 1238.24 1416.48 1244.92C1409.55 1251.59 1406.07 1259.85 1406.04 1269.68C1406.02 1279.51 1409.5 1287.78 1416.48 1294.48C1423.46 1301.18 1432.06 1304.51 1442.28 1304.46ZM1478.51 1687.07C1516.55 1687.07 1549.01 1674.61 1575.9 1649.68C1602.78 1624.75 1616.21 1594.32 1616.19 1558.38C1616.19 1541.57 1613.17 1525.19 1607.13 1509.26C1601.09 1493.33 1592.03 1479.56 1579.96 1467.94L1503.87 1394.9C1496.62 1387.94 1488.17 1384.46 1478.51 1384.46C1468.85 1384.46 1460.39 1387.94 1453.15 1394.9L1380.68 1464.46C1367.4 1477.22 1357.29 1491.71 1350.36 1507.94C1343.42 1524.17 1340.25 1540.99 1340.83 1558.38C1342.03 1594.32 1355.92 1624.75 1382.49 1649.68C1409.06 1674.61 1441.07 1687.07 1478.51 1687.07ZM1478.51 1620.99C1460.39 1620.99 1444.99 1614.9 1432.31 1602.72C1419.63 1590.55 1413.29 1575.77 1413.29 1558.38C1413.29 1549.68 1414.96 1541.43 1418.29 1533.61C1421.62 1525.8 1426.6 1518.69 1433.22 1512.29L1478.51 1468.81L1522.89 1511.42C1529.53 1517.8 1534.67 1525.04 1538.29 1533.16C1541.91 1541.28 1543.72 1549.68 1543.72 1558.38C1543.72 1575.77 1537.38 1590.55 1524.7 1602.72C1512.02 1614.9 1496.62 1620.99 1478.51 1620.99ZM1261.12 1826.2C1241.19 1826.2 1224.14 1819.4 1209.96 1805.79C1195.78 1792.17 1188.68 1775.79 1188.65 1756.64V1200.12C1188.65 1180.99 1195.75 1164.61 1209.96 1151C1224.16 1137.39 1241.21 1130.57 1261.12 1130.55H1695.9C1715.83 1130.55 1732.89 1137.37 1747.09 1151C1761.3 1164.64 1768.39 1181.01 1768.36 1200.12V1756.64C1768.36 1775.77 1761.27 1792.15 1747.09 1805.79C1732.92 1819.42 1715.85 1826.23 1695.9 1826.2H1261.12Z" fill="white"/>
<path d="M2275.61 1797.22H1898.8C1866.78 1797.22 1840.83 1771.26 1840.83 1739.25V811.71C1840.83 779.694 1866.78 753.739 1898.8 753.739H2275.61C2307.63 753.739 2333.58 779.694 2333.58 811.71V1739.25C2333.58 1771.26 2307.63 1797.22 2275.61 1797.22Z" stroke="white" stroke-width="40.5797"/>
<path d="M1840.83 1203.01H2333.58" stroke="white" stroke-width="40.5797"/>
<rect x="1913.29" y="898.667" width="57.971" height="202.899" rx="28.9855" fill="white"/>
<rect x="1913.29" y="1275.48" width="57.971" height="202.899" rx="28.9855" fill="white"/>
</g>
<path fill-rule="evenodd" clip-rule="evenodd" d="M1001.7 1054.46V1181.28C1001.7 1190.88 998.031 1200.1 991.508 1206.9C984.985 1213.69 976.138 1217.51 966.913 1217.51H758.218C748.993 1217.51 740.146 1213.69 733.623 1206.9C727.1 1200.1 723.435 1190.88 723.435 1181.28V1054.46H706.044C701.431 1054.46 697.008 1052.56 693.746 1049.16C690.485 1045.76 688.652 1041.15 688.652 1036.35C688.652 1031.54 690.485 1026.94 693.746 1023.54C697.008 1020.14 701.431 1018.23 706.044 1018.23H1019.09C1023.7 1018.23 1028.12 1020.14 1031.38 1023.54C1034.65 1026.94 1036.48 1031.54 1036.48 1036.35C1036.48 1041.15 1034.65 1045.76 1031.38 1049.16C1028.12 1052.56 1023.7 1054.46 1019.09 1054.46H1001.7ZM758.218 1054.46V1181.28H966.913V1054.46H758.218ZM845.174 963.884V945.768C845.174 940.963 847.006 936.356 850.268 932.958C853.529 929.561 857.953 927.652 862.565 927.652C867.178 927.652 871.601 929.561 874.863 932.958C878.124 936.356 879.957 940.963 879.957 945.768V963.884H984.305C988.917 963.884 993.341 965.793 996.602 969.19C999.864 972.587 1001.7 977.195 1001.7 982C1001.7 986.805 999.864 991.412 996.602 994.81C993.341 998.207 988.917 1000.12 984.305 1000.12H740.826C736.214 1000.12 731.79 998.207 728.529 994.81C725.267 991.412 723.435 986.805 723.435 982C723.435 977.195 725.267 972.587 728.529 969.19C731.79 965.793 736.214 963.884 740.826 963.884H845.174Z" fill="white"/>
<path d="M579.956 1351.87C579.956 1325.84 590.295 1300.88 608.697 1282.48C627.1 1264.08 652.059 1253.74 678.084 1253.74H1047.05C1073.07 1253.74 1098.03 1264.08 1116.43 1282.48C1134.84 1300.88 1145.17 1325.84 1145.17 1351.87V1720.83C1145.17 1746.85 1134.84 1771.81 1116.43 1790.22C1098.03 1808.62 1073.07 1818.96 1047.05 1818.96H678.084C652.059 1818.96 627.1 1808.62 608.697 1790.22C590.295 1771.81 579.956 1746.85 579.956 1720.83V1351.87ZM619.207 1720.83C619.207 1736.44 625.41 1751.42 636.452 1762.46C647.493 1773.5 662.469 1779.71 678.084 1779.71H1047.05C1062.66 1779.71 1077.64 1773.5 1088.68 1762.46C1099.72 1751.42 1105.92 1736.44 1105.92 1720.83V1450H619.207V1720.83ZM619.207 1351.87V1410.74H1105.92V1351.87C1105.92 1336.25 1099.72 1321.28 1088.68 1310.24C1077.64 1299.19 1062.66 1292.99 1047.05 1292.99H678.084C662.469 1292.99 647.493 1299.19 636.452 1310.24C625.41 1321.28 619.207 1336.25 619.207 1351.87ZM736.961 1383.27C745.289 1383.27 753.276 1379.96 759.165 1374.07C765.054 1368.18 768.362 1360.2 768.362 1351.87C768.362 1343.54 765.054 1335.55 759.165 1329.66C753.276 1323.77 745.289 1320.47 736.961 1320.47C728.633 1320.47 720.646 1323.77 714.757 1329.66C708.868 1335.55 705.56 1343.54 705.56 1351.87C705.56 1360.2 708.868 1368.18 714.757 1374.07C720.646 1379.96 728.633 1383.27 736.961 1383.27ZM862.565 1383.27C870.893 1383.27 878.88 1379.96 884.769 1374.07C890.657 1368.18 893.966 1360.2 893.966 1351.87C893.966 1343.54 890.657 1335.55 884.769 1329.66C878.88 1323.77 870.893 1320.47 862.565 1320.47C854.237 1320.47 846.25 1323.77 840.361 1329.66C834.472 1335.55 831.164 1343.54 831.164 1351.87C831.164 1360.2 834.472 1368.18 840.361 1374.07C846.25 1379.96 854.237 1383.27 862.565 1383.27ZM1019.57 1351.87C1019.57 1360.2 1016.26 1368.18 1010.37 1374.07C1004.48 1379.96 996.497 1383.27 988.169 1383.27C979.841 1383.27 971.854 1379.96 965.965 1374.07C960.076 1368.18 956.768 1360.2 956.768 1351.87C956.768 1343.54 960.076 1335.55 965.965 1329.66C971.854 1323.77 979.841 1320.47 988.169 1320.47C996.497 1320.47 1004.48 1323.77 1010.37 1329.66C1016.26 1335.55 1019.57 1343.54 1019.57 1351.87ZM697.71 1701.2V1528.5H1027.42V1701.2H697.71ZM685.934 1489.25C678.647 1489.25 671.659 1492.14 666.506 1497.29C661.353 1502.45 658.458 1509.44 658.458 1516.72V1712.98C658.458 1728.16 670.768 1740.45 685.934 1740.45H1039.2C1046.48 1740.45 1053.47 1737.56 1058.62 1732.41C1063.78 1727.25 1066.67 1720.27 1066.67 1712.98V1516.72C1066.67 1509.44 1063.78 1502.45 1058.62 1497.29C1053.47 1492.14 1046.48 1489.25 1039.2 1489.25H685.934Z" fill="white"/>
<defs>
<filter id="filter0_d_152_2421" x="0.246704" y="0.115936" width="2927.54" height="2956.52" filterUnits="userSpaceOnUse" color-interpolation-filters="sRGB">
<feFlood flood-opacity="0" result="BackgroundImageFix"/>
<feColorMatrix in="SourceAlpha" type="matrix" values="0 0 0 0 0 0 0 0 0 0 0 0 0 0 0 0 0 0 127 0" result="hardAlpha"/>
<feOffset dy="289.855"/>
<feGaussianBlur stdDeviation="217.391"/>
<feComposite in2="hardAlpha" operator="out"/>
<feColorMatrix type="matrix" values="0 0 0 0 0 0 0 0 0 0 0 0 0 0 0 0 0 0 0.05 0"/>
<feBlend mode="normal" in2="BackgroundImageFix" result="effect1_dropShadow_152_2421"/>
<feBlend mode="normal" in="SourceGraphic" in2="effect1_dropShadow_152_2421" result="shape"/>
</filter>
<linearGradient id="paint0_linear_152_2421" x1="493" y1="232" x2="2493" y2="2232" gradientUnits="userSpaceOnUse">
<stop stop-color="#0075FF"/>
<stop offset="1" stop-color="#0EA5E9"/>
</linearGradient>
</defs>
</svg>
