<svg width="14007" height="2957" viewBox="0 0 14007 2957" fill="none" xmlns="http://www.w3.org/2000/svg">
<path d="M3965.4 922.8C4015.8 922.8 4060.6 933.2 4099.8 954C4139.8 974 4171 1005.2 4193.4 1047.6C4216.6 1090 4228.2 1144.8 4228.2 1212V1584H4000.2V1249.2C4000.2 1202.8 3991.4 1169.2 3973.8 1148.4C3956.2 1126.8 3932.2 1116 3901.8 1116C3880.2 1116 3860.6 1121.2 3843 1131.6C3825.4 1142 3811.8 1158 3802.2 1179.6C3792.6 1200.4 3787.8 1227.6 3787.8 1261.2V1584H3559.8V1249.2C3559.8 1202.8 3551 1169.2 3533.4 1148.4C3516.6 1126.8 3492.6 1116 3461.4 1116C3439 1116 3419 1121.2 3401.4 1131.6C3384.6 1142 3371 1158 3360.6 1179.6C3351 1200.4 3346.2 1227.6 3346.2 1261.2V1584H3118.2V933.6H3335.4V1114.8L3292.2 1063.2C3316.2 1016.8 3349 982 3390.6 958.8C3432.2 934.8 3478.6 922.8 3529.8 922.8C3588.2 922.8 3639.4 938 3683.4 968.4C3728.2 998 3758.2 1044.4 3773.4 1107.6L3699 1092C3722.2 1039.2 3757 998 3803.4 968.4C3850.6 938 3904.6 922.8 3965.4 922.8ZM4471.49 1827.6C4437.09 1827.6 4402.29 1822 4367.09 1810.8C4332.69 1800.4 4304.69 1786.4 4283.09 1768.8L4362.29 1609.2C4375.89 1621.2 4391.49 1630.4 4409.09 1636.8C4427.49 1644 4445.49 1647.6 4463.09 1647.6C4487.89 1647.6 4507.49 1642 4521.89 1630.8C4536.29 1619.6 4548.69 1602 4559.09 1578L4589.09 1502.4L4607.09 1479.6L4827.89 933.6H5045.09L4764.29 1610.4C4741.89 1666.4 4715.89 1710 4686.29 1741.2C4657.49 1773.2 4625.09 1795.6 4589.09 1808.4C4553.89 1821.2 4514.69 1827.6 4471.49 1827.6ZM4560.29 1611.6L4273.49 933.6H4507.49L4718.69 1459.2L4560.29 1611.6ZM11743.8 1594.8C11685.4 1594.8 11636.6 1582.8 11597.4 1558.8C11559 1534.8 11530.2 1498 11511 1448.4C11491.8 1398.8 11482.2 1335.2 11482.2 1257.6C11482.2 1181.6 11492.2 1118.8 11512.2 1069.2C11533 1019.6 11563 982.8 11602.2 958.8C11641.4 934.8 11688.6 922.8 11743.8 922.8C11803 922.8 11856.6 936.4 11904.6 963.6C11953.4 990.8 11991.8 1029.6 12019.8 1080C12048.6 1129.6 12063 1188.8 12063 1257.6C12063 1327.2 12048.6 1387.2 12019.8 1437.6C11991.8 1487.2 11953.4 1526 11904.6 1554C11856.6 1581.2 11803 1594.8 11743.8 1594.8ZM11334.6 1584V693.6H11562.6V1042.8L11550.6 1257.6L11551.8 1472.4V1584H11334.6ZM11695.8 1413.6C11721.4 1413.6 11744.2 1407.6 11764.2 1395.6C11785 1383.6 11801.4 1366 11813.4 1342.8C11826.2 1318.8 11832.6 1290.4 11832.6 1257.6C11832.6 1224.8 11826.2 1197.2 11813.4 1174.8C11801.4 1151.6 11785 1134 11764.2 1122C11744.2 1110 11721.4 1104 11695.8 1104C11670.2 1104 11647 1110 11626.2 1122C11606.2 1134 11589.8 1151.6 11577 1174.8C11565 1197.2 11559 1224.8 11559 1257.6C11559 1290.4 11565 1318.8 11577 1342.8C11589.8 1366 11606.2 1383.6 11626.2 1395.6C11647 1407.6 11670.2 1413.6 11695.8 1413.6ZM12494.9 1594.8C12423.7 1594.8 12360.5 1580.4 12305.3 1551.6C12250.1 1522.8 12206.5 1483.2 12174.4 1432.8C12143.3 1381.6 12127.7 1323.2 12127.7 1257.6C12127.7 1192 12143.3 1134 12174.4 1083.6C12206.5 1033.2 12250.1 994 12305.3 966C12360.5 937.2 12423.7 922.8 12494.9 922.8C12566.1 922.8 12629.3 937.2 12684.5 966C12740.5 994 12784.1 1033.2 12815.3 1083.6C12846.5 1134 12862.1 1192 12862.1 1257.6C12862.1 1323.2 12846.5 1381.6 12815.3 1432.8C12784.1 1483.2 12740.5 1522.8 12684.5 1551.6C12629.3 1580.4 12566.1 1594.8 12494.9 1594.8ZM12494.9 1413.6C12521.3 1413.6 12544.5 1407.6 12564.5 1395.6C12585.3 1383.6 12601.7 1366 12613.7 1342.8C12625.7 1318.8 12631.7 1290.4 12631.7 1257.6C12631.7 1224.8 12625.7 1197.2 12613.7 1174.8C12601.7 1151.6 12585.3 1134 12564.5 1122C12544.5 1110 12521.3 1104 12494.9 1104C12469.3 1104 12446.1 1110 12425.3 1122C12405.3 1134 12388.9 1151.6 12376.1 1174.8C12364.1 1197.2 12358.1 1224.8 12358.1 1257.6C12358.1 1290.4 12364.1 1318.8 12376.1 1342.8C12388.9 1366 12405.3 1383.6 12425.3 1395.6C12446.1 1407.6 12469.3 1413.6 12494.9 1413.6ZM13203.6 1594.8C13148.4 1594.8 13094.4 1588.4 13041.6 1575.6C12989.6 1562.8 12947.6 1546.8 12915.6 1527.6L12984 1371.6C13014.4 1390 13050 1404.8 13090.8 1416C13131.6 1426.4 13171.6 1431.6 13210.8 1431.6C13249.2 1431.6 13275.6 1427.6 13290 1419.6C13305.2 1411.6 13312.8 1400.8 13312.8 1387.2C13312.8 1374.4 13305.6 1365.2 13291.2 1359.6C13277.6 1353.2 13259.2 1348.4 13236 1345.2C13213.6 1342 13188.8 1338.4 13161.6 1334.4C13134.4 1330.4 13106.8 1325.2 13078.8 1318.8C13051.6 1311.6 13026.4 1301.2 13003.2 1287.6C12980.8 1273.2 12962.8 1254 12949.2 1230C12935.6 1206 12928.8 1175.6 12928.8 1138.8C12928.8 1097.2 12940.8 1060.4 12964.8 1028.4C12989.6 995.6 13025.6 970 13072.8 951.6C13120 932.4 13177.6 922.8 13245.6 922.8C13291.2 922.8 13337.2 927.6 13383.6 937.2C13430.8 946 13470.4 959.6 13502.4 978L13434 1132.8C13402 1114.4 13370 1102 13338 1095.6C13306 1088.4 13275.6 1084.8 13246.8 1084.8C13208.4 1084.8 13181.2 1089.2 13165.2 1098C13150 1106.8 13142.4 1117.6 13142.4 1130.4C13142.4 1143.2 13149.2 1153.2 13162.8 1160.4C13176.4 1166.8 13194.4 1172 13216.8 1176C13240 1179.2 13265.2 1182.8 13292.4 1186.8C13319.6 1190 13346.8 1195.2 13374 1202.4C13402 1209.6 13427.2 1220.4 13449.6 1234.8C13472.8 1248.4 13491.2 1267.2 13504.8 1291.2C13518.4 1314.4 13525.2 1344.4 13525.2 1381.2C13525.2 1421.2 13512.8 1457.2 13488 1489.2C13464 1521.2 13428 1546.8 13380 1566C13332.8 1585.2 13274 1594.8 13203.6 1594.8Z" fill="#020617"/>
<path d="M5478.46 1584V1462.8L5462.86 1432.8V1209.6C5462.86 1173.6 5451.66 1146 5429.26 1126.8C5407.66 1106.8 5372.86 1096.8 5324.86 1096.8C5293.66 1096.8 5262.06 1102 5230.06 1112.4C5198.06 1122 5170.86 1135.6 5148.46 1153.2L5071.66 998.4C5108.46 974.4 5152.46 956 5203.66 943.2C5255.66 929.6 5307.26 922.8 5358.46 922.8C5464.06 922.8 5545.66 947.2 5603.26 996C5661.66 1044 5690.86 1119.6 5690.86 1222.8V1584H5478.46ZM5286.46 1594.8C5234.46 1594.8 5190.46 1586 5154.46 1568.4C5118.46 1550.8 5090.86 1526.8 5071.66 1496.4C5053.26 1466 5044.06 1432 5044.06 1394.4C5044.06 1354.4 5054.06 1320 5074.06 1291.2C5094.86 1261.6 5126.46 1239.2 5168.86 1224C5211.26 1208 5266.06 1200 5333.26 1200H5486.86V1318.8H5364.46C5327.66 1318.8 5301.66 1324.8 5286.46 1336.8C5272.06 1348.8 5264.86 1364.8 5264.86 1384.8C5264.86 1404.8 5272.46 1420.8 5287.66 1432.8C5302.86 1444.8 5323.66 1450.8 5350.06 1450.8C5374.86 1450.8 5397.26 1444.8 5417.26 1432.8C5438.06 1420 5453.26 1400.8 5462.86 1375.2L5494.06 1459.2C5482.06 1504 5458.46 1538 5423.26 1561.2C5388.86 1583.6 5343.26 1594.8 5286.46 1594.8ZM6243.48 1594.8C6188.28 1594.8 6141.08 1582.8 6101.88 1558.8C6062.68 1534 6032.68 1497.2 6011.88 1448.4C5991.88 1398.8 5981.88 1335.6 5981.88 1258.8C5981.88 1181.2 5991.48 1118 6010.68 1069.2C6029.88 1019.6 6058.68 982.8 6097.08 958.8C6136.28 934.8 6185.08 922.8 6243.48 922.8C6302.68 922.8 6356.28 936.8 6404.28 964.8C6453.08 992 6491.48 1030.8 6519.48 1081.2C6548.28 1130.8 6562.68 1190 6562.68 1258.8C6562.68 1327.6 6548.28 1387.2 6519.48 1437.6C6491.48 1488 6453.08 1526.8 6404.28 1554C6356.28 1581.2 6302.68 1594.8 6243.48 1594.8ZM5834.28 1816.8V933.6H6051.48V1044L6050.28 1258.8L6062.28 1474.8V1816.8H5834.28ZM6195.48 1413.6C6221.08 1413.6 6243.88 1407.6 6263.88 1395.6C6284.68 1383.6 6301.08 1366 6313.08 1342.8C6325.88 1319.6 6332.28 1291.6 6332.28 1258.8C6332.28 1226 6325.88 1198 6313.08 1174.8C6301.08 1151.6 6284.68 1134 6263.88 1122C6243.88 1110 6221.08 1104 6195.48 1104C6169.88 1104 6146.68 1110 6125.88 1122C6105.88 1134 6089.48 1151.6 6076.68 1174.8C6064.68 1198 6058.68 1226 6058.68 1258.8C6058.68 1291.6 6064.68 1319.6 6076.68 1342.8C6089.48 1366 6105.88 1383.6 6125.88 1395.6C6146.68 1407.6 6169.88 1413.6 6195.48 1413.6ZM7077.35 1594.8C7022.15 1594.8 6974.95 1582.8 6935.75 1558.8C6896.55 1534 6866.55 1497.2 6845.75 1448.4C6825.75 1398.8 6815.75 1335.6 6815.75 1258.8C6815.75 1181.2 6825.35 1118 6844.55 1069.2C6863.75 1019.6 6892.55 982.8 6930.95 958.8C6970.15 934.8 7018.95 922.8 7077.35 922.8C7136.55 922.8 7190.15 936.8 7238.15 964.8C7286.95 992 7325.35 1030.8 7353.35 1081.2C7382.15 1130.8 7396.55 1190 7396.55 1258.8C7396.55 1327.6 7382.15 1387.2 7353.35 1437.6C7325.35 1488 7286.95 1526.8 7238.15 1554C7190.15 1581.2 7136.55 1594.8 7077.35 1594.8ZM6668.15 1816.8V933.6H6885.35V1044L6884.15 1258.8L6896.15 1474.8V1816.8H6668.15ZM7029.35 1413.6C7054.95 1413.6 7077.75 1407.6 7097.75 1395.6C7118.55 1383.6 7134.95 1366 7146.95 1342.8C7159.75 1319.6 7166.15 1291.6 7166.15 1258.8C7166.15 1226 7159.75 1198 7146.95 1174.8C7134.95 1151.6 7118.55 1134 7097.75 1122C7077.75 1110 7054.95 1104 7029.35 1104C7003.75 1104 6980.55 1110 6959.75 1122C6939.75 1134 6923.35 1151.6 6910.55 1174.8C6898.55 1198 6892.55 1226 6892.55 1258.8C6892.55 1291.6 6898.55 1319.6 6910.55 1342.8C6923.35 1366 6939.75 1383.6 6959.75 1395.6C6980.55 1407.6 7003.75 1413.6 7029.35 1413.6ZM7502.03 1584V693.6H7730.03V1584H7502.03ZM7877.7 1584V933.6H8105.7V1584H7877.7ZM7991.7 861.6C7950.1 861.6 7916.5 850 7890.9 826.8C7865.3 803.6 7852.5 774.8 7852.5 740.4C7852.5 706 7865.3 677.2 7890.9 654C7916.5 630.8 7950.1 619.2 7991.7 619.2C8033.3 619.2 8066.9 630.4 8092.5 652.8C8118.1 674.4 8130.9 702.4 8130.9 736.8C8130.9 772.8 8118.1 802.8 8092.5 826.8C8067.7 850 8034.1 861.6 7991.7 861.6ZM8650.57 1584V1462.8L8634.97 1432.8V1209.6C8634.97 1173.6 8623.77 1146 8601.37 1126.8C8579.77 1106.8 8544.97 1096.8 8496.97 1096.8C8465.77 1096.8 8434.17 1102 8402.17 1112.4C8370.17 1122 8342.97 1135.6 8320.57 1153.2L8243.77 998.4C8280.57 974.4 8324.57 956 8375.77 943.2C8427.77 929.6 8479.37 922.8 8530.57 922.8C8636.17 922.8 8717.77 947.2 8775.37 996C8833.77 1044 8862.97 1119.6 8862.97 1222.8V1584H8650.57ZM8458.57 1594.8C8406.57 1594.8 8362.57 1586 8326.57 1568.4C8290.57 1550.8 8262.97 1526.8 8243.77 1496.4C8225.37 1466 8216.17 1432 8216.17 1394.4C8216.17 1354.4 8226.17 1320 8246.17 1291.2C8266.97 1261.6 8298.57 1239.2 8340.97 1224C8383.37 1208 8438.17 1200 8505.37 1200H8658.97V1318.8H8536.57C8499.77 1318.8 8473.77 1324.8 8458.57 1336.8C8444.17 1348.8 8436.97 1364.8 8436.97 1384.8C8436.97 1404.8 8444.57 1420.8 8459.77 1432.8C8474.97 1444.8 8495.77 1450.8 8522.17 1450.8C8546.97 1450.8 8569.37 1444.8 8589.37 1432.8C8610.17 1420 8625.37 1400.8 8634.97 1375.2L8666.17 1459.2C8654.17 1504 8630.57 1538 8595.37 1561.2C8560.97 1583.6 8515.37 1594.8 8458.57 1594.8ZM9429.99 922.8C9480.39 922.8 9525.99 933.2 9566.79 954C9607.59 974 9639.59 1005.2 9662.79 1047.6C9686.79 1090 9698.79 1144.8 9698.79 1212V1584H9470.79V1249.2C9470.79 1202.8 9461.19 1169.2 9441.99 1148.4C9423.59 1126.8 9397.59 1116 9363.99 1116C9339.99 1116 9317.99 1121.6 9297.99 1132.8C9277.99 1143.2 9262.39 1159.6 9251.19 1182C9239.99 1204.4 9234.39 1233.6 9234.39 1269.6V1584H9006.39V933.6H9223.59V1118.4L9181.59 1064.4C9206.39 1017.2 9240.39 982 9283.59 958.8C9326.79 934.8 9375.59 922.8 9429.99 922.8ZM10182 1594.8C10110 1594.8 10045.6 1580.4 9988.84 1551.6C9932.84 1522.8 9888.84 1483.2 9856.84 1432.8C9824.84 1381.6 9808.84 1323.2 9808.84 1257.6C9808.84 1192 9824.84 1134 9856.84 1083.6C9888.84 1033.2 9932.84 994 9988.84 966C10045.6 937.2 10110 922.8 10182 922.8C10255.6 922.8 10319.2 938.4 10372.8 969.6C10426.4 1000.8 10464.4 1044.8 10486.8 1101.6L10310.4 1191.6C10295.2 1161.2 10276.4 1139.2 10254 1125.6C10231.6 1111.2 10207.2 1104 10180.8 1104C10154.4 1104 10130.4 1110 10108.8 1122C10087.2 1134 10070 1151.6 10057.2 1174.8C10045.2 1197.2 10039.2 1224.8 10039.2 1257.6C10039.2 1291.2 10045.2 1319.6 10057.2 1342.8C10070 1366 10087.2 1383.6 10108.8 1395.6C10130.4 1407.6 10154.4 1413.6 10180.8 1413.6C10207.2 1413.6 10231.6 1406.8 10254 1393.2C10276.4 1378.8 10295.2 1356.4 10310.4 1326L10486.8 1416C10464.4 1472.8 10426.4 1516.8 10372.8 1548C10319.2 1579.2 10255.6 1594.8 10182 1594.8ZM10906 1594.8C10829.2 1594.8 10762 1580.4 10704.4 1551.6C10647.6 1522 10603.2 1482 10571.2 1431.6C10540 1380.4 10524.4 1322.4 10524.4 1257.6C10524.4 1192.8 10539.6 1135.2 10570 1084.8C10601.2 1033.6 10644 994 10698.4 966C10752.8 937.2 10814 922.8 10882 922.8C10946 922.8 11004.4 936 11057.2 962.4C11110 988 11152 1026 11183.2 1076.4C11214.4 1126.8 11230 1188 11230 1260C11230 1268 11229.6 1277.2 11228.8 1287.6C11228 1298 11227.2 1307.6 11226.4 1316.4H10711.6V1196.4H11105.2L11018.8 1230C11019.6 1200.4 11014 1174.8 11002 1153.2C10990.8 1131.6 10974.8 1114.8 10954 1102.8C10934 1090.8 10910.4 1084.8 10883.2 1084.8C10856 1084.8 10832 1090.8 10811.2 1102.8C10791.2 1114.8 10775.6 1132 10764.4 1154.4C10753.2 1176 10747.6 1201.6 10747.6 1231.2V1266C10747.6 1298 10754 1325.6 10766.8 1348.8C10780.4 1372 10799.6 1390 10824.4 1402.8C10849.2 1414.8 10878.8 1420.8 10913.2 1420.8C10945.2 1420.8 10972.4 1416.4 10994.8 1407.6C11018 1398 11040.8 1383.6 11063.2 1364.4L11183.2 1489.2C11152 1523.6 11113.6 1550 11068 1568.4C11022.4 1586 10968.4 1594.8 10906 1594.8Z" fill="#0075FF"/>
<g filter="url(#filter0_d_156_2405)">
<rect x="493" y="232" width="2000" height="2000" rx="405.797" fill="url(#paint0_linear_156_2405)" shape-rendering="crispEdges"/>
<path fill-rule="evenodd" clip-rule="evenodd" d="M1304.59 866.783C1304.59 859.864 1306.99 853.229 1311.26 848.336C1315.54 843.444 1321.33 840.696 1327.37 840.696H1600.66C1606.7 840.696 1612.49 843.444 1616.76 848.336C1621.03 853.229 1623.43 859.864 1623.43 866.783V1075.48C1623.43 1082.4 1621.03 1089.03 1616.76 1093.92C1612.49 1098.82 1606.7 1101.57 1600.66 1101.57H1327.37C1321.33 1101.57 1315.54 1098.82 1311.26 1093.92C1306.99 1089.03 1304.59 1082.4 1304.59 1075.48V866.783ZM1362.58 895.165H1508.52C1515.83 895.165 1521.77 901.948 1521.77 910.348V1031.91C1521.77 1040.31 1515.85 1047.1 1508.52 1047.1H1362.58C1360.83 1047.1 1359.11 1046.71 1357.5 1045.95C1355.89 1045.19 1354.42 1044.08 1353.19 1042.66C1351.96 1041.25 1350.98 1039.58 1350.32 1037.73C1349.66 1035.89 1349.32 1033.91 1349.32 1031.91V910.348C1349.32 901.948 1355.24 895.165 1362.58 895.165ZM1548.1 914.678C1548.1 905.678 1554.47 898.374 1562.33 898.374H1586.15C1589.93 898.374 1593.55 900.092 1596.22 903.149C1598.89 906.207 1600.39 910.354 1600.39 914.678C1600.39 919.003 1598.89 923.15 1596.22 926.207C1593.55 929.265 1589.93 930.983 1586.15 930.983H1562.33C1558.56 930.983 1554.94 929.265 1552.27 926.207C1549.6 923.15 1548.1 919.003 1548.1 914.678ZM1562.33 954.826C1558.56 954.826 1554.94 956.544 1552.27 959.602C1549.6 962.659 1548.1 966.806 1548.1 971.131C1548.1 975.455 1549.6 979.602 1552.27 982.659C1554.94 985.717 1558.56 987.435 1562.33 987.435H1586.15C1589.93 987.435 1593.55 985.717 1596.22 982.659C1598.89 979.602 1600.39 975.455 1600.39 971.131C1600.39 966.806 1598.89 962.659 1596.22 959.602C1593.55 956.544 1589.93 954.826 1586.15 954.826H1562.33Z" fill="white"/>
<path d="M1333.58 1304.46C1343.85 1304.46 1352.46 1301.12 1359.41 1294.45C1366.37 1287.77 1369.84 1279.51 1369.81 1269.68C1369.79 1259.85 1366.31 1251.59 1359.38 1244.92C1352.44 1238.24 1343.85 1234.9 1333.58 1234.9C1323.31 1234.9 1314.72 1238.24 1307.78 1244.92C1300.85 1251.59 1297.37 1259.85 1297.35 1269.68C1297.32 1279.51 1300.8 1287.78 1307.78 1294.48C1314.76 1301.18 1323.36 1304.51 1333.58 1304.46ZM1442.28 1304.46C1452.54 1304.46 1461.15 1301.12 1468.11 1294.45C1475.07 1287.77 1478.53 1279.51 1478.51 1269.68C1478.48 1259.85 1475 1251.59 1468.07 1244.92C1461.14 1238.24 1452.54 1234.9 1442.28 1234.9C1432.01 1234.9 1423.41 1238.24 1416.48 1244.92C1409.55 1251.59 1406.07 1259.85 1406.04 1269.68C1406.02 1279.51 1409.5 1287.78 1416.48 1294.48C1423.46 1301.18 1432.06 1304.51 1442.28 1304.46ZM1478.51 1687.07C1516.55 1687.07 1549.01 1674.61 1575.9 1649.68C1602.78 1624.75 1616.21 1594.32 1616.19 1558.38C1616.19 1541.57 1613.17 1525.19 1607.13 1509.26C1601.09 1493.33 1592.03 1479.56 1579.96 1467.94L1503.87 1394.9C1496.62 1387.94 1488.17 1384.46 1478.51 1384.46C1468.85 1384.46 1460.39 1387.94 1453.15 1394.9L1380.68 1464.46C1367.4 1477.22 1357.29 1491.71 1350.36 1507.94C1343.42 1524.17 1340.25 1540.99 1340.83 1558.38C1342.03 1594.32 1355.92 1624.75 1382.49 1649.68C1409.06 1674.61 1441.07 1687.07 1478.51 1687.07ZM1478.51 1620.99C1460.39 1620.99 1444.99 1614.9 1432.31 1602.72C1419.63 1590.55 1413.29 1575.77 1413.29 1558.38C1413.29 1549.68 1414.96 1541.43 1418.29 1533.61C1421.62 1525.8 1426.6 1518.69 1433.22 1512.29L1478.51 1468.81L1522.89 1511.42C1529.53 1517.8 1534.67 1525.04 1538.29 1533.16C1541.91 1541.28 1543.72 1549.68 1543.72 1558.38C1543.72 1575.77 1537.38 1590.55 1524.7 1602.72C1512.02 1614.9 1496.62 1620.99 1478.51 1620.99ZM1261.12 1826.2C1241.19 1826.2 1224.14 1819.4 1209.96 1805.79C1195.78 1792.17 1188.68 1775.79 1188.65 1756.64V1200.12C1188.65 1180.99 1195.75 1164.61 1209.96 1151C1224.16 1137.39 1241.21 1130.57 1261.12 1130.55H1695.9C1715.83 1130.55 1732.89 1137.37 1747.09 1151C1761.3 1164.64 1768.39 1181.01 1768.36 1200.12V1756.64C1768.36 1775.77 1761.27 1792.15 1747.09 1805.79C1732.92 1819.42 1715.85 1826.23 1695.9 1826.2H1261.12Z" fill="white"/>
<path d="M2275.61 1797.22H1898.8C1866.78 1797.22 1840.83 1771.26 1840.83 1739.25V811.71C1840.83 779.694 1866.78 753.739 1898.8 753.739H2275.61C2307.63 753.739 2333.58 779.694 2333.58 811.71V1739.25C2333.58 1771.26 2307.63 1797.22 2275.61 1797.22Z" stroke="white" stroke-width="40.5797"/>
<path d="M1840.83 1203.01H2333.58" stroke="white" stroke-width="40.5797"/>
<rect x="1913.29" y="898.667" width="57.971" height="202.899" rx="28.9855" fill="white"/>
<rect x="1913.29" y="1275.48" width="57.971" height="202.899" rx="28.9855" fill="white"/>
</g>
<path fill-rule="evenodd" clip-rule="evenodd" d="M1001.7 1054.46V1181.28C1001.7 1190.88 998.031 1200.1 991.508 1206.9C984.985 1213.69 976.138 1217.51 966.913 1217.51H758.218C748.993 1217.51 740.146 1213.69 733.623 1206.9C727.1 1200.1 723.435 1190.88 723.435 1181.28V1054.46H706.044C701.431 1054.46 697.008 1052.56 693.746 1049.16C690.485 1045.76 688.652 1041.15 688.652 1036.35C688.652 1031.54 690.485 1026.94 693.746 1023.54C697.008 1020.14 701.431 1018.23 706.044 1018.23H1019.09C1023.7 1018.23 1028.12 1020.14 1031.38 1023.54C1034.65 1026.94 1036.48 1031.54 1036.48 1036.35C1036.48 1041.15 1034.65 1045.76 1031.38 1049.16C1028.12 1052.56 1023.7 1054.46 1019.09 1054.46H1001.7ZM758.218 1054.46V1181.28H966.913V1054.46H758.218ZM845.174 963.884V945.768C845.174 940.963 847.006 936.356 850.268 932.958C853.529 929.561 857.953 927.652 862.565 927.652C867.178 927.652 871.601 929.561 874.863 932.958C878.124 936.356 879.957 940.963 879.957 945.768V963.884H984.305C988.917 963.884 993.341 965.793 996.602 969.19C999.864 972.587 1001.7 977.195 1001.7 982C1001.7 986.805 999.864 991.412 996.602 994.81C993.341 998.207 988.917 1000.12 984.305 1000.12H740.826C736.214 1000.12 731.79 998.207 728.529 994.81C725.267 991.412 723.435 986.805 723.435 982C723.435 977.195 725.267 972.587 728.529 969.19C731.79 965.793 736.214 963.884 740.826 963.884H845.174Z" fill="white"/>
<path d="M579.956 1351.87C579.956 1325.84 590.295 1300.88 608.697 1282.48C627.1 1264.08 652.059 1253.74 678.084 1253.74H1047.05C1073.07 1253.74 1098.03 1264.08 1116.43 1282.48C1134.84 1300.88 1145.17 1325.84 1145.17 1351.87V1720.83C1145.17 1746.85 1134.84 1771.81 1116.43 1790.22C1098.03 1808.62 1073.07 1818.96 1047.05 1818.96H678.084C652.059 1818.96 627.1 1808.62 608.697 1790.22C590.295 1771.81 579.956 1746.85 579.956 1720.83V1351.87ZM619.207 1720.83C619.207 1736.44 625.41 1751.42 636.452 1762.46C647.493 1773.5 662.469 1779.71 678.084 1779.71H1047.05C1062.66 1779.71 1077.64 1773.5 1088.68 1762.46C1099.72 1751.42 1105.92 1736.44 1105.92 1720.83V1450H619.207V1720.83ZM619.207 1351.87V1410.74H1105.92V1351.87C1105.92 1336.25 1099.72 1321.28 1088.68 1310.24C1077.64 1299.19 1062.66 1292.99 1047.05 1292.99H678.084C662.469 1292.99 647.493 1299.19 636.452 1310.24C625.41 1321.28 619.207 1336.25 619.207 1351.87ZM736.961 1383.27C745.289 1383.27 753.276 1379.96 759.165 1374.07C765.054 1368.18 768.362 1360.2 768.362 1351.87C768.362 1343.54 765.054 1335.55 759.165 1329.66C753.276 1323.77 745.289 1320.47 736.961 1320.47C728.633 1320.47 720.646 1323.77 714.757 1329.66C708.868 1335.55 705.56 1343.54 705.56 1351.87C705.56 1360.2 708.868 1368.18 714.757 1374.07C720.646 1379.96 728.633 1383.27 736.961 1383.27ZM862.565 1383.27C870.893 1383.27 878.88 1379.96 884.769 1374.07C890.657 1368.18 893.966 1360.2 893.966 1351.87C893.966 1343.54 890.657 1335.55 884.769 1329.66C878.88 1323.77 870.893 1320.47 862.565 1320.47C854.237 1320.47 846.25 1323.77 840.361 1329.66C834.472 1335.55 831.164 1343.54 831.164 1351.87C831.164 1360.2 834.472 1368.18 840.361 1374.07C846.25 1379.96 854.237 1383.27 862.565 1383.27ZM1019.57 1351.87C1019.57 1360.2 1016.26 1368.18 1010.37 1374.07C1004.48 1379.96 996.497 1383.27 988.169 1383.27C979.841 1383.27 971.854 1379.96 965.965 1374.07C960.076 1368.18 956.768 1360.2 956.768 1351.87C956.768 1343.54 960.076 1335.55 965.965 1329.66C971.854 1323.77 979.841 1320.47 988.169 1320.47C996.497 1320.47 1004.48 1323.77 1010.37 1329.66C1016.26 1335.55 1019.57 1343.54 1019.57 1351.87ZM697.71 1701.2V1528.5H1027.42V1701.2H697.71ZM685.934 1489.25C678.647 1489.25 671.659 1492.14 666.506 1497.29C661.353 1502.45 658.458 1509.44 658.458 1516.72V1712.98C658.458 1728.16 670.768 1740.45 685.934 1740.45H1039.2C1046.48 1740.45 1053.47 1737.56 1058.62 1732.41C1063.78 1727.25 1066.67 1720.27 1066.67 1712.98V1516.72C1066.67 1509.44 1063.78 1502.45 1058.62 1497.29C1053.47 1492.14 1046.48 1489.25 1039.2 1489.25H685.934Z" fill="white"/>
<defs>
<filter id="filter0_d_156_2405" x="0.246704" y="0.115936" width="2927.54" height="2956.52" filterUnits="userSpaceOnUse" color-interpolation-filters="sRGB">
<feFlood flood-opacity="0" result="BackgroundImageFix"/>
<feColorMatrix in="SourceAlpha" type="matrix" values="0 0 0 0 0 0 0 0 0 0 0 0 0 0 0 0 0 0 127 0" result="hardAlpha"/>
<feOffset dy="289.855"/>
<feGaussianBlur stdDeviation="217.391"/>
<feComposite in2="hardAlpha" operator="out"/>
<feColorMatrix type="matrix" values="0 0 0 0 0 0 0 0 0 0 0 0 0 0 0 0 0 0 0.05 0"/>
<feBlend mode="normal" in2="BackgroundImageFix" result="effect1_dropShadow_156_2405"/>
<feBlend mode="normal" in="SourceGraphic" in2="effect1_dropShadow_156_2405" result="shape"/>
</filter>
<linearGradient id="paint0_linear_156_2405" x1="493" y1="232" x2="2493" y2="2232" gradientUnits="userSpaceOnUse">
<stop stop-color="#0075FF"/>
<stop offset="1" stop-color="#0EA5E9"/>
</linearGradient>
</defs>
</svg>
